<?xml version="1.0" encoding="iso-8859-1"?>
<!-- Uploaded to: SVG Repo, www.svgrepo.com, Generator: SVG Repo Mixer Tools -->
<svg height="800px" width="800px" version="1.1" id="Layer_1" xmlns="http://www.w3.org/2000/svg" xmlns:xlink="http://www.w3.org/1999/xlink" 
	 viewBox="0 0 512 512" xml:space="preserve">
<g>
	<path style="fill:#95A5A5;" d="M233.931,35.31c-9.94,0-19.103,3.284-26.483,8.828C207.448,19.765,187.683,0,163.31,0
		c-21.689,0-39.733,15.651-43.441,36.273c-7.971-11.432-21.01-18.617-36.008-18.617c-24.373,0-44.138,19.765-44.138,44.138
		c0,9.975,3.31,19.174,8.889,26.571l207.59-0.079l16.331-29.82C265.048,44.738,250.668,35.31,233.931,35.31"/>
	<path style="fill:#ECF0F1;" d="M454.621,344.276c-29.255,0-52.966-23.711-52.966-52.966c0-22.987,14.671-42.496,35.143-49.823
		L304.552,0L101.517,370.759h406.069L487,333.162C478.04,340.1,466.829,344.276,454.621,344.276"/>
	<path style="fill:#805333;" d="M454.621,441.379c-4.873,0-8.828-3.955-8.828-8.828v-88.276c0-4.873,3.955-8.828,8.828-8.828
		c4.873,0,8.828,3.955,8.828,8.828v88.276C463.448,437.425,459.493,441.379,454.621,441.379"/>
	<path style="fill:#4FBA6F;" d="M507.586,291.31c0,29.255-23.711,52.966-52.966,52.966s-52.966-23.711-52.966-52.966
		c0-29.255,23.711-52.965,52.966-52.965S507.586,262.056,507.586,291.31"/>
	<path style="fill:#805333;" d="M48.552,291.31c-4.873,0-8.828-3.955-8.828-8.828V220.69c0-4.873,3.955-8.828,8.828-8.828
		s8.828,3.955,8.828,8.828v61.793C57.379,287.356,53.425,291.31,48.552,291.31"/>
	<path style="fill:#4FBA6F;" d="M92.69,176.552c0,24.373-19.765,44.138-44.138,44.138S4.414,200.925,4.414,176.552
		s19.765-44.138,44.138-44.138S92.69,152.179,92.69,176.552"/>
	<path style="fill:#2C3E50;" d="M339.862,459.034c0-29.21-23.755-52.966-52.966-52.966H101.517c-24.338,0-44.138-19.8-44.138-44.138
		c0-48.675,39.601-88.276,88.276-88.276h9.039l19.332-35.31h-28.372c-68.149,0-123.586,55.437-123.586,123.586
		c0,43.802,35.646,79.448,79.448,79.448h185.379c9.737,0,17.655,7.918,17.655,17.655c0,29.21,23.755,52.966,52.966,52.966h150.069
		v-35.31H357.517C347.78,476.69,339.862,468.771,339.862,459.034"/>
	<polygon style="fill:#ECF0F1;" points="304.553,176.552 331.035,123.586 408.674,190.129 392.828,161.201 304.553,0 
		216.277,161.201 200.431,190.129 278.07,123.586 	"/>
	<path style="fill:#95A5A5;" d="M408.672,190.132l-77.639-66.542l-26.483,52.966l-26.483-52.966l-77.639,66.542l-45.656,83.377
		l123.295-61.643l26.483,52.966l26.483-52.966L416.52,254.6c5.606-5.8,12.518-10.337,20.277-13.118L408.672,190.132z"/>
</g>
</svg>