<?xml version="1.0" encoding="iso-8859-1"?>
<!-- Uploaded to: SVG Repo, www.svgrepo.com, Generator: SVG Repo Mixer Tools -->
<svg height="800px" width="800px" version="1.1" id="Layer_1" xmlns="http://www.w3.org/2000/svg" xmlns:xlink="http://www.w3.org/1999/xlink" 
	 viewBox="0 0 512 512" xml:space="preserve">
<g>
	<g>
		<path style="fill:#ECF0F1;" d="M132.414,22.069l-66.975,133.95c23.225,5.614,40.492,26.483,40.492,51.43
			c0,29.255-23.711,52.966-52.966,52.966c-12.791,0-24.523-4.537-33.677-12.085L0,286.897h158.897l52.966-105.931L132.414,22.069z"
			/>
		<path style="fill:#ECF0F1;" d="M459.034,260.414c-29.255,0-52.966-23.711-52.966-52.966c0-24.947,17.267-45.815,40.492-51.43
			l-66.975-133.95l-79.448,158.897l52.966,105.931H512l-19.288-38.568C483.558,255.876,471.826,260.414,459.034,260.414"/>
	</g>
	<path style="fill:#BDC3C7;" d="M256,92.69l-97.103,194.207h44.138c0-29.255,23.711-52.966,52.966-52.966
		s52.966,23.711,52.966,52.966h44.138L256,92.69z"/>
	<g>
		<polygon style="fill:#24AE5F;" points="103.448,80 132.411,154.487 161.374,80 132.411,22.073 		"/>
		<polygon style="fill:#24AE5F;" points="350.621,80 379.584,154.487 408.548,80 379.584,22.073 		"/>
		<polygon style="fill:#24AE5F;" points="256,198.621 288.591,157.881 256,92.69 223.409,157.881 		"/>
	</g>
	<path style="fill:#805333;" d="M52.966,366.345c-4.873,0-8.828-3.955-8.828-8.828v-97.103c0-4.873,3.955-8.828,8.828-8.828
		s8.828,3.955,8.828,8.828v97.103C61.793,362.39,57.838,366.345,52.966,366.345"/>
	<path style="fill:#42A557;" d="M105.931,207.448c0,29.255-23.711,52.966-52.966,52.966S0,236.703,0,207.448
		s23.711-52.966,52.966-52.966S105.931,178.194,105.931,207.448"/>
	<path style="fill:#805333;" d="M459.034,366.345c-4.873,0-8.828-3.955-8.828-8.828v-97.103c0-4.873,3.955-8.828,8.828-8.828
		s8.828,3.955,8.828,8.828v97.103C467.862,362.39,463.907,366.345,459.034,366.345"/>
	<path style="fill:#42A557;" d="M512,207.448c0,29.255-23.711,52.966-52.966,52.966s-52.966-23.711-52.966-52.966
		s23.711-52.966,52.966-52.966S512,178.194,512,207.448"/>
	<path style="fill:#805333;" d="M256,445.793c-4.873,0-8.828-3.955-8.828-8.828v-97.103c0-4.873,3.955-8.828,8.828-8.828
		s8.828,3.955,8.828,8.828v97.103C264.828,441.838,260.873,445.793,256,445.793"/>
	<path style="fill:#42A557;" d="M308.966,286.897c0,29.255-23.711,52.966-52.966,52.966s-52.966-23.711-52.966-52.966
		s23.711-52.966,52.966-52.966S308.966,257.642,308.966,286.897"/>
	<path style="fill:#805333;" d="M132.414,489.931c-4.873,0-8.828-3.955-8.828-8.828v-52.966c0-4.873,3.955-8.828,8.828-8.828
		c4.873,0,8.828,3.955,8.828,8.828v52.966C141.241,485.976,137.287,489.931,132.414,489.931"/>
	<path style="fill:#42A557;" d="M167.724,392.828c0,19.5-15.81,35.31-35.31,35.31s-35.31-15.81-35.31-35.31
		c0-19.5,15.81-35.31,35.31-35.31S167.724,373.327,167.724,392.828"/>
	<path style="fill:#805333;" d="M379.586,489.931c-4.873,0-8.828-3.955-8.828-8.828v-52.966c0-4.873,3.955-8.828,8.828-8.828
		s8.828,3.955,8.828,8.828v52.966C388.414,485.976,384.459,489.931,379.586,489.931"/>
	<path style="fill:#42A557;" d="M414.897,392.828c0,19.5-15.81,35.31-35.31,35.31c-19.5,0-35.31-15.81-35.31-35.31
		c0-19.5,15.81-35.31,35.31-35.31C399.086,357.517,414.897,373.327,414.897,392.828"/>
</g>
</svg>